<svg aria-hidden="true" style="position: absolute; width: 0; height: 0; overflow: hidden;" version="1.1" xmlns="http://www.w3.org/2000/svg" xmlns:xlink="http://www.w3.org/1999/xlink">
<defs>
<symbol id="icon-prev" viewBox="0 0 30 30">
<path d="M20.836 26.127c0.402 0.408 0.402 1.064 0 1.469s-1.051 0.406-1.454 0l-11.745-11.862c-0.402-0.405-0.402-1.060 0-1.469l11.745-11.862c0.402-0.405 1.051-0.405 1.454 0 0.402 0.406 0.402 1.064 0 1.469l-10.711 11.129 10.711 11.127z"></path>
</symbol>
<symbol id="icon-next" viewBox="0 0 30 30">
<path d="M19.875 15l-10.711-11.13c-0.402-0.405-0.402-1.060 0-1.469 0.402-0.405 1.051-0.405 1.454 0l11.745 11.862c0.402 0.406 0.402 1.064 0 1.469l-11.745 11.862c-0.402 0.406-1.051 0.405-1.454 0-0.402-0.404-0.402-1.060 0-1.469l10.711-11.125z"></path>
</symbol>
<symbol id="icon-open" viewBox="0 0 30 30">
<path d="M15.893 7.794l0.669 2.056c0.554-0.474 1.253-0.899 2.161-1.193 0.885-0.288 1.666-0.45 2.373-0.543l-0.645-1.985c-0.714 0.104-1.501 0.27-2.37 0.552-0.867 0.282-1.582 0.675-2.189 1.111zM17.283 12.076l0.669 2.056c0.554-0.474 1.252-0.899 2.161-1.193 0.885-0.288 1.666-0.45 2.373-0.543l-0.645-1.985c-0.714 0.104-1.501 0.27-2.37 0.552-0.867 0.28-1.581 0.674-2.189 1.111zM18.675 16.358l0.669 2.056c0.554-0.474 1.252-0.899 2.161-1.192 0.885-0.288 1.666-0.45 2.373-0.543l-0.645-1.985c-0.714 0.104-1.501 0.27-2.37 0.552-0.869 0.28-1.582 0.675-2.189 1.111zM8.082 19.615l0.645 1.985c0.625-0.339 1.353-0.667 2.238-0.954 0.909-0.295 1.724-0.363 2.45-0.305l-0.669-2.056c-0.749 0.003-1.557 0.105-2.422 0.385-0.869 0.282-1.604 0.609-2.241 0.945zM5.3 11.052l0.645 1.985c0.625-0.339 1.353-0.666 2.238-0.954 0.909-0.295 1.724-0.363 2.45-0.305l-0.668-2.058c-0.749 0.005-1.557 0.105-2.424 0.387-0.869 0.282-1.604 0.609-2.241 0.945zM6.69 15.335l0.645 1.985c0.625-0.339 1.353-0.668 2.238-0.954 0.909-0.295 1.724-0.363 2.45-0.305l-0.667-2.058c-0.749 0.003-1.557 0.105-2.422 0.385-0.869 0.282-1.605 0.61-2.242 0.946zM16.596 2.115c-2.585 0.84-3.935 2.628-4.58 3.839-1.233-0.6-3.375-1.253-5.96-0.413-3.785 1.23-5.954 3.94-5.954 3.94l6.143 18.88c0.189 0.58 0.969 0.715 1.317 0.215 0.749-1.079 2.19-2.487 4.885-3.363 2.577-0.837 4.454 0.081 5.482 0.867 0.408 0.312 0.993 0.090 1.143-0.402 0.378-1.24 1.36-3.060 3.915-3.89 2.699-0.878 4.694-0.584 5.934-0.15 0.578 0.201 1.125-0.363 0.938-0.944l-6.132-18.891c0 0-3.348-0.918-7.133 0.31zM16.426 22.884c-1.229-0.366-2.851-0.537-4.711 0.066-1.876 0.609-3.19 1.424-4.049 2.106l-4.868-14.973c0.537-0.537 1.78-1.563 3.993-2.281 2.084-0.676 3.792-0.097 4.919 0.567l4.716 14.515zM26.767 18.85c-1.096-0.048-2.639 0.066-4.515 0.676-1.86 0.605-3.072 1.698-3.85 2.715l-4.716-14.515c0.519-1.2 1.56-2.673 3.645-3.35 2.211-0.719 3.82-0.62 4.57-0.501l4.866 14.975z"></path>
</symbol>
<symbol id="icon-minus" viewBox="0 0 30 30">
<path d="M24 3h-18c-1.65 0-3 1.35-3 3v18c0 1.65 1.35 3 3 3h18c1.65 0 3-1.35 3-3v-18c0-1.65-1.35-3-3-3zM22.5 16.5h-15v-3h15v3z"></path>
</symbol>
<symbol id="icon-plus" viewBox="0 0 30 30">
<path d="M24 3h-18c-1.65 0-3 1.35-3 3v18c0 1.65 1.35 3 3 3h18c1.65 0 3-1.35 3-3v-18c0-1.65-1.35-3-3-3zM22.5 16.5h-6v6h-3v-6h-6v-3h6v-6h3v6h6v3z"></path>
</symbol>
<symbol id="icon-toc" viewBox="0 0 30 30">
<path d="M24 1.5h-18c-0.83 0-1.5 0.67-1.5 1.5v24c0 0.828 0.67 1.5 1.5 1.5h18c0.83 0 1.5-0.672 1.5-1.5v-24c0-0.828-0.67-1.5-1.5-1.5zM22.5 25.5h-15v-21h15v21zM19.5 7.5h-9v3h9v-3zM19.5 19.5h-9v3h9v-3zM19.5 13.5h-9v3h9v-3z"></path>
</symbol>
</defs>
</svg>
